HIERARCHY
ROOT Hips
{
	OFFSET 0.000000 0.000000 0.000000
	CHANNELS 6 Xposition Yposition Zposition Zrotation Yrotation Xrotation 
	JOINT LeftUpLeg_virtual
	{
		OFFSET 0.000000 0.000000 0.000000
		CHANNELS 3 Zrotation Yrotation Xrotation
		JOINT LeftUpLeg
		{
			OFFSET 8.479694 -4.795517 -0.379053
			CHANNELS 3 Zrotation Yrotation Xrotation
			JOINT LeftLeg
			{
				OFFSET 0.485052 -32.551468 0.112863
				CHANNELS 3 Zrotation Yrotation Xrotation
				JOINT LeftFoot
				{
					OFFSET 0.438033 -32.635670 -3.012641
					CHANNELS 3 Zrotation Yrotation Xrotation
					JOINT LeftToeBase
					{
						OFFSET 0.970169 -13.225353 11.864223
						CHANNELS 3 Zrotation Yrotation Xrotation
						End Site
						{
							OFFSET 0.000000 0.000000 0.000000
						}
					}
				}
			}
		}
	}
	JOINT RightUpLeg_virtual
	{
		OFFSET 0.000000 0.000000 0.000000
		CHANNELS 3 Zrotation Yrotation Xrotation
		JOINT RightUpLeg
		{
			OFFSET -8.479694 -4.795517 -0.379053
			CHANNELS 3 Zrotation Yrotation Xrotation
			JOINT RightLeg
			{
				OFFSET -0.484100 -32.551483 0.112903
				CHANNELS 3 Zrotation Yrotation Xrotation
				JOINT RightFoot
				{
					OFFSET -0.438985 -32.635651 -3.012681
					CHANNELS 3 Zrotation Yrotation Xrotation
					JOINT RightToeBase
					{
						OFFSET -0.970169 -13.225354 11.864223
						CHANNELS 3 Zrotation Yrotation Xrotation
						End Site
						{
							OFFSET 0.000000 0.000000 0.000000
						}
					}
				}
			}
		}
	}
	JOINT Spine_virtual
	{
		OFFSET 0.000000 0.000000 0.000000
		CHANNELS 3 Zrotation Yrotation Xrotation
		JOINT Spine
		{
			OFFSET 0.000000 7.722015 1.166203
			CHANNELS 3 Zrotation Yrotation Xrotation
			JOINT Spine1
			{
				OFFSET 0.000000 12.024086 0.248766
				CHANNELS 3 Zrotation Yrotation Xrotation
				JOINT Spine2
				{
					OFFSET -0.000000 11.503036 -0.491240
					CHANNELS 3 Zrotation Yrotation Xrotation
					JOINT Neck_virtual
					{
						OFFSET 0.000000 0.000000 0.000000
						CHANNELS 3 Zrotation Yrotation Xrotation
						JOINT Neck
						{
							OFFSET 0.000000 18.430687 -3.123054
							CHANNELS 3 Zrotation Yrotation Xrotation
							JOINT Head
							{
								OFFSET -0.000000 9.051071 1.034021
								CHANNELS 3 Zrotation Yrotation Xrotation
								End Site
								{
									OFFSET 0.000000 0.000000 0.000000
								}
							}
						}
					}
					JOINT LeftShoulder_virtual
					{
						OFFSET 0.000000 0.000000 0.000000
						CHANNELS 3 Zrotation Yrotation Xrotation
						JOINT LeftShoulder
						{
							OFFSET 6.197824 13.665230 -4.064723
							CHANNELS 3 Zrotation Yrotation Xrotation
							JOINT LeftArm
							{
								OFFSET 7.778132 -0.187073 -1.709282
								CHANNELS 3 Zrotation Yrotation Xrotation
								JOINT LeftForeArm
								{
									OFFSET 21.954697 0.000000 -2.041093
									CHANNELS 3 Zrotation Yrotation Xrotation
									JOINT LeftHand
									{
										OFFSET 22.992908 0.000000 -0.870901
										CHANNELS 3 Zrotation Yrotation Xrotation
										End Site
										{
											OFFSET 0.000000 0.000000 0.000000
										}
									}
								}
							}
						}
					}
					JOINT RightShoulder_virtual
					{
						OFFSET 0.000000 0.000000 0.000000
						CHANNELS 3 Zrotation Yrotation Xrotation
						JOINT RightShoulder
						{
							OFFSET -6.197824 13.665230 -4.064723
							CHANNELS 3 Zrotation Yrotation Xrotation
							JOINT RightArm
							{
								OFFSET -7.778132 -0.187073 -1.709282
								CHANNELS 3 Zrotation Yrotation Xrotation
								JOINT RightForeArm
								{
									OFFSET -21.954697 0.000000 -2.041093
									CHANNELS 3 Zrotation Yrotation Xrotation
									JOINT RightHand
									{
										OFFSET -22.992908 0.000000 -0.870901
										CHANNELS 3 Zrotation Yrotation Xrotation
										End Site
										{
											OFFSET 0.000000 0.000000 0.000000
										}
									}
								}
							}
						}
					}
				}
			}
		}
	}
}
MOTION
Frames: 4
Frame Time: 0.033333
-47.641880 29.980705 6.325611 179.247974 82.976246 179.075484 -3.720342 -7.511114 -25.411736 -0.373820 15.912271 -80.788304 6.190052 -1.805088 80.755382 8.133402 -28.820140 -21.976711 0.000000 0.000000 0.000000 -9.883114 -0.818502 -19.451293 4.648634 -20.076154 -98.132681 -0.486947 -1.987274 128.406655 -3.386586 31.203398 -9.508130 0.000000 0.000000 0.000000 -21.153478 3.058360 -11.073465 -4.437270 2.114015 -9.940577 1.871559 -4.015242 5.825989 0.012962 -0.005281 -0.047765 1.196476 -4.399181 14.408912 3.712559 7.167763 16.728253 0.000000 0.000000 0.000000 4.608418 -3.554668 7.114472 9.359579 -0.527714 0.316510 -118.931625 70.838665 -27.265818 -4.726794 -68.178074 36.230964 0.000000 0.000000 0.000000 -0.127394 -2.287792 7.293301 22.339339 5.684935 4.676540 21.169487 -3.723565 -38.983315 -10.219533 29.938871 2.373031 0.000000 0.000000 0.000000 
-47.448318 29.985649 6.415593 179.167705 83.454229 178.976610 -3.396740 -7.002193 -25.349750 -0.180782 15.588158 -80.716252 6.220499 -1.773262 81.008243 7.623541 -28.623952 -22.282001 0.000000 0.000000 0.000000 -9.596237 -0.731199 -19.535084 4.813962 -19.701044 -98.152448 -0.567708 -1.859908 128.702511 -3.592671 31.049890 -9.711537 0.000000 0.000000 0.000000 -20.151078 3.299373 -11.428299 -4.151030 1.693508 -10.044293 1.723688 -4.143042 5.849869 0.060481 0.015472 -0.016051 0.944356 -4.505355 14.483853 3.092395 7.231209 17.190654 0.000000 0.000000 0.000000 4.358908 -3.501344 7.231879 9.147691 0.391990 0.296024 -116.124253 70.792582 -24.799160 -4.554344 -68.007579 36.031751 0.000000 0.000000 0.000000 -0.403996 -2.361155 7.441912 21.135875 5.717391 5.330668 27.487282 -11.829844 -34.076709 -10.298086 28.201428 2.063731 0.000000 0.000000 0.000000 
-47.284142 29.999702 6.488321 177.204368 84.084171 177.162990 -2.846726 -6.706840 -25.502058 0.045268 15.521292 -80.448666 6.237335 -1.718326 81.294455 7.017237 -28.298746 -22.607593 0.000000 0.000000 0.000000 -9.308854 -0.821703 -19.858135 4.878912 -19.434675 -98.169892 -0.686642 -1.872374 128.935025 -3.660637 30.865618 -9.596994 0.000000 0.000000 0.000000 -19.095812 3.636766 -12.012891 -4.015207 1.185295 -10.178221 1.444914 -4.362497 5.817989 0.066099 -0.069885 -0.020430 0.811832 -4.661678 14.689874 2.540717 7.196280 17.766662 0.000000 0.000000 0.000000 4.265132 -3.679922 7.332947 8.940909 1.511971 0.277240 -114.254318 70.777344 -22.791602 -3.838974 -67.637219 35.202696 0.000000 0.000000 0.000000 -0.562583 -2.416016 7.633233 20.095190 5.901859 6.322586 34.235627 -19.716560 -27.590023 -10.465132 28.468235 1.372373 0.000000 0.000000 0.000000 
-47.149734 30.030352 6.588388 175.176621 84.689647 175.214952 -2.190833 -6.506550 -25.842905 0.273616 15.751299 -79.953785 6.258529 -1.615282 81.588700 6.310015 -27.827893 -22.757144 0.000000 0.000000 0.000000 -8.831714 -0.886581 -20.387365 4.989737 -19.190940 -98.166730 -0.814863 -1.826780 129.166937 -3.456959 30.364439 -9.241522 0.000000 0.000000 0.000000 -17.782406 3.397077 -12.717588 -3.909230 0.650853 -10.342981 1.341161 -4.408971 5.764106 0.090774 -0.019118 -0.014503 0.469963 -4.646281 14.774575 1.801126 7.451785 18.276837 0.000000 0.000000 0.000000 3.953297 -3.597906 7.408135 8.678573 2.777612 0.249512 -111.831684 70.701173 -19.980947 -3.459119 -67.355227 34.602698 0.000000 0.000000 0.000000 -0.944218 -2.344715 7.754899 19.192306 6.279313 7.275179 41.067482 -26.900616 -20.715783 -10.697577 30.083479 0.445237 0.000000 0.000000 0.000000 
